<svg xmlns="http://www.w3.org/2000/svg" xmlns:xlink="http://www.w3.org/1999/xlink" width="794" zoomAndPan="magnify" viewBox="0 0 595.5 842.249979" height="1123" preserveAspectRatio="xMidYMid meet" version="1.0"><defs><clipPath id="e807465a16"><path d="M 0.015625 0 L 594.984375 0 L 594.984375 841.5 L 0.015625 841.5 Z M 0.015625 0 " clip-rule="nonzero"/></clipPath><clipPath id="8dd4771197"><path d="M 0.015625 0 L 594.984375 0 L 594.984375 841.5 L 0.015625 841.5 Z M 0.015625 0 " clip-rule="nonzero"/></clipPath><clipPath id="a53d044ea2"><path d="M 178.507812 285 L 416 285 L 416 556.847656 L 178.507812 556.847656 Z M 178.507812 285 " clip-rule="nonzero"/></clipPath><clipPath id="15cab46331"><rect x="0" width="595" y="0" height="842"/></clipPath></defs><g clip-path="url(#e807465a16)"><path fill="#ffffff" d="M 0.015625 0 L 594.984375 0 L 594.984375 841.5 L 0.015625 841.5 Z M 0.015625 0 " fill-opacity="1" fill-rule="nonzero"/><g transform="matrix(1, 0, 0, 1, -0.000000000000000002, 0)"><g clip-path="url(#15cab46331)"><g clip-path="url(#8dd4771197)"><path fill="#ebe7e5" d="M 0.015625 0 L 595.210938 0 L 595.210938 841.816406 L 0.015625 841.816406 Z M 0.015625 0 " fill-opacity="1" fill-rule="nonzero"/></g><g clip-path="url(#a53d044ea2)"><path fill="#8cc03e" d="M 178.996094 360 L 178.996094 482.664062 C 178.996094 487.226562 181.417969 491.472656 185.351562 493.753906 L 290.964844 555.117188 C 294.910156 557.410156 299.753906 557.410156 303.699219 555.117188 L 409.265625 493.773438 C 413.210938 491.460938 415.621094 487.25 415.632812 482.6875 L 415.632812 360 C 415.632812 355.4375 413.199219 351.195312 409.253906 348.890625 L 303.710938 287.582031 C 299.765625 285.289062 294.898438 285.289062 290.976562 287.582031 L 290.953125 287.59375 L 185.339844 348.902344 C 181.398438 351.207031 178.984375 355.4375 178.996094 360 Z M 178.996094 360 " fill-opacity="1" fill-rule="nonzero"/></g></g></g></g></svg>